<svg width="46" height="50" viewBox="0 0 46 50" fill="none" xmlns="http://www.w3.org/2000/svg">
<path d="M3.08071 49.934C2.66736 49.9362 2.25783 49.8558 1.87678 49.6977C1.49572 49.5396 1.15101 49.3071 0.863396 49.0141C0.575782 48.7211 0.351209 48.3737 0.203192 47.9928C0.0551755 47.6119 -0.0132244 47.2054 0.00210909 46.7978V31.2372C0.00210909 21.8259 0.00210909 12.4146 0.00210909 3.00328C-0.0146355 1.6506 1.0319 0.35812 2.39419 0.0748363C3.16987 -0.0972026 3.98285 0.0299008 4.66666 0.430122L43.4542 22.3327C43.8983 22.5718 44.2749 22.9164 44.5499 23.3354C44.8249 23.7543 44.9897 24.2344 45.0292 24.7321C45.0688 25.2298 44.9819 25.7293 44.7764 26.1855C44.5709 26.6416 44.2534 27.04 43.8525 27.3445C43.6318 27.5 43.4013 27.6415 43.1624 27.7682L42.9351 27.8969C30.1774 35.1017 17.4196 42.3066 4.66188 49.5114C4.18326 49.7908 3.6368 49.9369 3.08071 49.934ZM3.07354 0.588288C2.88837 0.587956 2.70378 0.60855 2.52336 0.649667H2.51618C1.97568 0.771497 1.49257 1.06959 1.1449 1.4958C0.797236 1.92201 0.60531 2.45143 0.600129 2.99856C0.600129 12.4154 0.600129 21.8283 0.600129 31.2372V46.8179C0.584556 47.2587 0.68991 47.6955 0.905063 48.0821C1.12022 48.4688 1.43718 48.7909 1.82248 49.0145C2.20898 49.2311 2.64623 49.344 3.09068 49.3419C3.53514 49.3398 3.97129 49.2229 4.35569 49.0027C17.119 41.7939 29.8768 34.5883 42.629 27.3858L42.861 27.2547C43.0775 27.1404 43.2864 27.0127 43.4865 26.8723C43.7962 26.6378 44.0438 26.3329 44.2082 25.9834C44.3725 25.634 44.4487 25.2505 44.4302 24.8657C44.4114 24.4501 44.2843 24.0463 44.0612 23.6934C43.838 23.3404 43.5264 23.0502 43.1564 22.8509L4.36885 0.942393C3.97689 0.712268 3.52961 0.589993 3.07354 0.588288Z" fill="white"/>
<path d="M9.30849 24.3735C9.29773 23.4162 8.7631 22.4366 7.82899 22.0813C6.56956 21.5879 5.18575 21.8535 3.86891 21.7874V28.5283C4.7755 28.5201 5.6821 28.5496 6.5875 28.5106C7.47257 28.4717 8.40788 28.1058 8.87672 27.3303C9.42929 26.4438 9.31806 25.3638 9.30849 24.3735ZM7.42473 27.2182C6.73701 27.7021 5.84476 27.5073 5.05777 27.5475V22.7612C5.88902 22.793 6.85183 22.6101 7.54075 23.179C8.1591 23.709 8.10767 24.5872 8.10169 25.3202C8.10887 25.9941 8.01557 26.785 7.42473 27.2182Z" fill="white"/>
<path d="M10.434 21.785C10.434 22.1096 10.434 22.4354 10.434 22.76H12.0917C12.0917 24.0064 12.1 25.2529 12.0917 26.4993C12.0917 26.8888 11.9314 27.3409 11.5236 27.4731C11.0786 27.6018 10.6038 27.5286 10.1457 27.5463V28.5272C10.8992 28.5118 11.7221 28.624 12.3979 28.2167C12.9959 27.8744 13.2781 27.1721 13.2746 26.5111C13.2829 24.9365 13.2746 23.3608 13.2746 21.7897C12.3273 21.7897 11.3812 21.7897 10.4352 21.7897" fill="white"/>
<path d="M14.8641 21.7874C14.8641 23.4399 14.8641 25.0923 14.8641 26.7366C14.8641 27.2288 14.9837 27.7635 15.3605 28.1105C15.6989 28.4233 16.1785 28.5189 16.6295 28.526C17.4356 28.5354 18.2429 28.526 19.0502 28.526V27.5463C18.2788 27.5357 17.5061 27.564 16.7359 27.5333C16.5904 27.5326 16.4493 27.4839 16.335 27.395C16.2208 27.306 16.14 27.1818 16.1056 27.0423C16.0063 26.5406 16.0697 26.0248 16.053 25.5185C16.938 25.5185 17.8219 25.5185 18.707 25.5185C18.707 25.1891 18.707 24.861 18.707 24.5317C17.8219 24.5317 16.9368 24.5317 16.053 24.5317C16.053 23.9415 16.053 23.3513 16.053 22.7612H18.9988C18.9988 22.4366 18.9988 22.112 18.9988 21.7874C17.6202 21.7874 16.2415 21.7874 14.8629 21.7874" fill="white"/>
<path d="M20.1649 21.7862V22.76C21.2342 22.76 22.3023 22.76 23.3703 22.76C22.4673 24.6096 21.2557 26.301 20.0083 27.9299V28.5272C21.654 28.5272 23.301 28.5272 24.9479 28.5272C24.9479 28.199 24.9479 27.8709 24.9479 27.5439C23.8523 27.5439 22.7568 27.5439 21.6612 27.5439C22.8334 25.985 23.8757 24.335 24.7781 22.6101C24.9348 22.361 24.912 22.0636 24.9108 21.7838H20.1649" fill="white"/>
<path d="M25.8605 21.7862C25.8605 22.1112 25.8605 22.4358 25.8605 22.76C26.9262 22.76 27.993 22.76 29.0587 22.76C28.1533 24.6072 26.9477 26.2951 25.6966 27.9264C25.6966 28.1258 25.6966 28.3253 25.6966 28.526H30.6375C30.6375 28.1986 30.6375 27.8721 30.6375 27.5463C29.5419 27.5463 28.4463 27.5463 27.3496 27.5463C28.5096 25.9971 29.5445 24.3605 30.4449 22.6514C30.6124 22.3917 30.604 22.0813 30.5968 21.785H25.8605" fill="white"/>
<path d="M31.1326 21.7897C31.8503 23.1719 32.6504 24.5116 33.3549 25.8973C33.3848 26.7732 33.3549 27.6513 33.3668 28.5283H34.5473C34.5473 27.7753 34.5473 27.021 34.5473 26.268C34.5569 26.085 34.5186 25.8844 34.6191 25.7179C35.3511 24.4066 36.1082 23.1082 36.8306 21.7909C36.4383 21.7854 36.046 21.7854 35.6537 21.7909C35.1023 22.8154 34.5557 23.8424 34.0055 24.8681C33.4649 23.8435 32.9291 22.8154 32.3944 21.7909C31.9746 21.7909 31.5572 21.7909 31.135 21.7909" fill="white"/>
<path d="M10.544 31.347V32.152C10.8167 32.152 11.0886 32.152 11.3597 32.152V31.347H10.544Z" fill="white"/>
<path d="M12.1144 31.4367C12.13 32.2748 12.0809 33.1164 12.1407 33.9544C12.1636 34.2316 12.2936 34.4894 12.5037 34.6746C12.7139 34.8598 12.9882 34.9582 13.2698 34.9494C15.2253 34.9742 17.1832 34.9435 19.1411 34.9553C19.1615 34.089 19.1256 33.1187 18.5084 32.4353C17.5982 31.4308 15.8867 31.491 14.9275 32.3987C15.065 32.61 15.199 32.8225 15.3294 33.0385C15.8293 32.5309 16.6247 32.2913 17.3016 32.5817C17.9224 32.8272 18.2393 33.4941 18.2585 34.1244C16.6797 34.135 15.1009 34.1244 13.5233 34.1161C13.3865 34.121 13.2528 34.0743 13.1495 33.9855C13.0463 33.8968 12.9811 33.7725 12.9672 33.6381C12.899 32.9086 12.9552 32.1721 12.9361 31.4391H12.1144" fill="white"/>
<path d="M6.7992 32.6135C6.30404 33.0585 6.14975 33.7431 6.1354 34.3841C6.76093 34.3841 7.38646 34.3841 8.01199 34.3841C7.57184 35.5467 5.76343 35.7261 5.0482 34.7382C4.64753 34.2117 4.7169 33.5177 4.71451 32.8968C4.43822 32.8968 4.16074 32.8968 3.88445 32.8968C3.89163 33.4292 3.839 33.9768 4.00406 34.4915C4.13688 34.8768 4.36577 35.2229 4.66966 35.4981C4.97355 35.7733 5.34269 35.9686 5.7431 36.0661C6.58033 36.2632 7.53716 36.1074 8.17704 35.5136C8.74396 35.0415 9.01427 34.3038 9.02503 33.5826C8.38037 33.5826 7.7357 33.5979 7.09104 33.5826C7.33024 32.9629 7.99644 32.7292 8.61718 32.7564V32.0068C7.97252 32.0245 7.2824 32.152 6.8004 32.6088" fill="white"/>
<path d="M10.5452 32.8118C10.5153 33.4988 10.611 34.1987 10.4782 34.8774C10.3754 35.3024 9.9113 35.4475 9.52139 35.4676C9.52139 35.6966 9.52139 35.9268 9.52139 36.1569C10.1373 36.151 10.8741 35.9976 11.16 35.3885C11.5188 34.5788 11.3154 33.6652 11.3633 32.8095H10.5452" fill="white"/>
<path d="M16.2682 35.5266C16.2682 35.7973 16.2682 36.068 16.2682 36.3387H17.0744C17.0744 36.0672 17.0744 35.7965 17.0744 35.5266H16.2682Z" fill="white"/>
<path d="M22.292 49.7057L22.5764 48.6856C22.8053 48.8164 23.0963 48.8818 23.4494 48.8818C24.0117 48.8818 24.2929 48.5777 24.2929 47.9696V42.9182H25.6661V47.8911C25.6661 48.5646 25.4961 49.0845 25.1561 49.4507C24.816 49.8169 24.3256 50 23.6848 50C23.1486 50 22.7301 49.928 22.4293 49.7842L22.292 49.7057Z" fill="white"/>
<path d="M29.7768 42.8005C31.7582 42.8005 32.7488 44.0004 32.7488 46.4002C32.7488 48.8001 31.7582 50 29.7768 50C28.6718 50 27.8871 49.6501 27.4228 48.9504C27.0174 48.3162 26.8147 47.4661 26.8147 46.4002C26.8147 45.3344 27.0174 44.4876 27.4228 43.8599C27.8805 43.1536 28.6652 42.8005 29.7768 42.8005ZM30.5027 44.0854C30.3 43.9743 30.058 43.9187 29.7768 43.9187C29.4957 43.9187 29.2537 43.9743 29.051 44.0854C28.8483 44.1966 28.6946 44.3274 28.59 44.4778C28.4004 44.7655 28.2794 45.1807 28.2271 45.7235C28.1944 46.1747 28.1944 46.6258 28.2271 47.077C28.2467 47.2667 28.286 47.4857 28.3448 47.7342C28.456 48.1919 28.6914 48.5221 29.051 48.7249C29.2537 48.8295 29.4957 48.8818 29.7768 48.8818C30.058 48.8818 30.3 48.8295 30.5027 48.7249C30.6923 48.6268 30.846 48.4927 30.9637 48.3227C31.1598 48.0481 31.2808 47.6328 31.3266 47.077C31.3724 46.6258 31.3724 46.1779 31.3266 45.7333C31.32 45.5567 31.2841 45.3377 31.2187 45.0761C31.101 44.5988 30.8623 44.2685 30.5027 44.0854Z" fill="white"/>
<path d="M39.2629 47.9696C39.2629 48.702 39.0242 49.2251 38.5468 49.539C38.0695 49.8463 37.3077 50 36.2615 50C35.8757 50 35.4899 49.9803 35.1041 49.9411C34.7117 49.9019 34.4207 49.8626 34.2311 49.8234L33.9467 49.7645V43.0359C34.6529 42.879 35.4212 42.8005 36.2517 42.8005C37.2064 42.8005 37.9028 42.9477 38.3409 43.2419C38.7855 43.5296 39.0078 43.9939 39.0078 44.6347C39.0078 45.4129 38.6744 45.9262 38.0074 46.1747C38.8444 46.4427 39.2629 47.0411 39.2629 47.9696ZM36.3596 46.7435H35.3297V48.8426C35.6043 48.8752 35.928 48.8916 36.3007 48.8916C36.8631 48.8916 37.2619 48.8164 37.4973 48.666C37.7393 48.5091 37.8603 48.2312 37.8603 47.8323C37.8603 47.4465 37.7425 47.1686 37.5071 46.9986C37.2783 46.8285 36.8958 46.7435 36.3596 46.7435ZM36.2419 43.8991C35.8953 43.8991 35.5912 43.9187 35.3297 43.9579V45.8019H36.2713C36.7486 45.8019 37.0919 45.73 37.3012 45.5861C37.5104 45.4357 37.615 45.1873 37.615 44.8407C37.615 44.4811 37.5071 44.2358 37.2914 44.1051C37.0821 43.9677 36.7323 43.8991 36.2419 43.8991Z" fill="white"/>
<path d="M41.4818 44.7426C41.4818 44.9388 41.5668 45.1219 41.7368 45.2919C41.8087 45.3442 41.9199 45.4031 42.0703 45.4684C42.0899 45.475 42.2109 45.5208 42.4332 45.6058L42.8942 45.7431C43.365 45.8804 43.7574 46.0341 44.0712 46.2041C44.3786 46.3676 44.6074 46.5833 44.7578 46.8514C44.9148 47.1195 45.0063 47.4726 45.0325 47.9107C45.0325 48.5777 44.7938 49.0943 44.3164 49.4605C43.8391 49.8201 43.1656 50 42.2959 50C41.9493 50 41.5962 49.9673 41.2366 49.9019C40.8835 49.843 40.6187 49.7776 40.4421 49.7057L40.1969 49.6076L40.4911 48.5385C41.0273 48.7674 41.6191 48.8818 42.2665 48.8818C43.1885 48.8818 43.6495 48.5908 43.6495 48.0088C43.6495 47.7604 43.5514 47.5576 43.3552 47.4007C43.2898 47.3353 43.1689 47.2667 42.9923 47.1947C42.855 47.1359 42.7242 47.0868 42.6 47.0476L42.1292 46.9103C41.5995 46.7599 41.1483 46.5474 40.7756 46.2727C40.3506 45.9392 40.138 45.4586 40.138 44.8309C40.138 44.1247 40.3767 43.6114 40.8541 43.291C41.3379 42.964 41.9788 42.8005 42.7765 42.8005C43.4696 42.8005 44.0614 42.8921 44.5518 43.0752L44.7873 43.1733L44.493 44.1933C44.0614 44.0102 43.5252 43.9187 42.8844 43.9187C41.9493 43.9187 41.4818 44.1933 41.4818 44.7426Z" fill="white"/>
</svg>
