<svg width="20" height="20" viewBox="0 0 20 20" fill="none" xmlns="http://www.w3.org/2000/svg">
<path opacity="0.4" d="M14.0167 1.59167H5.98339C4.21672 1.59167 2.76672 3.04167 2.76672 4.80834V16.55C2.76672 18.05 3.84172 18.6833 5.15839 17.9583L9.22506 15.7C9.65839 15.4583 10.3584 15.4583 10.7834 15.7L14.8501 17.9583C16.1667 18.6917 17.2417 18.0583 17.2417 16.55V4.80834C17.2334 3.04167 15.7917 1.59167 14.0167 1.59167Z" fill="#F0A14A"/>
<path d="M9.24169 11.0416C9.08336 11.0416 8.92502 10.9833 8.80002 10.8583L7.55002 9.6083C7.30836 9.36664 7.30836 8.96664 7.55002 8.72497C7.79169 8.48331 8.19169 8.48331 8.43336 8.72497L9.24169 9.5333L12.1334 6.64164C12.375 6.39997 12.775 6.39997 13.0167 6.64164C13.2584 6.8833 13.2584 7.2833 13.0167 7.52497L9.68336 10.8583C9.55836 10.9833 9.40002 11.0416 9.24169 11.0416Z" fill="#F0A14A"/>
</svg>
