<svg width="34" height="34" viewBox="0 0 34 34" fill="none" xmlns="http://www.w3.org/2000/svg">
<path d="M14.1525 32.2291C13.8692 32.2291 13.6425 32.1725 13.4725 32.1016C12.9059 31.8891 11.9425 31.195 11.9425 28.9991V19.8616H8.62753C6.7292 19.8616 6.0492 18.9691 5.80836 18.445C5.56753 17.9066 5.35503 16.8158 6.6017 15.385L17.3259 3.20165C18.7709 1.55831 19.9467 1.67165 20.5134 1.88415C21.08 2.09665 22.0434 2.79081 22.0434 4.98664V14.1241H25.3584C27.2567 14.1241 27.9367 15.0166 28.1775 15.5408C28.4184 16.0791 28.6309 17.17 27.3842 18.6008L16.66 30.7841C15.6542 31.9316 14.7759 32.2291 14.1525 32.2291ZM19.7342 3.88164C19.6917 3.93831 19.3942 4.07998 18.9267 4.61831L8.20253 16.8016C7.80586 17.255 7.7492 17.5383 7.7492 17.595C7.77753 17.6091 8.03253 17.7508 8.62753 17.7508H13.005C13.5859 17.7508 14.0675 18.2325 14.0675 18.8133V29.0133C14.0675 29.7216 14.195 30.0333 14.2517 30.1183C14.2942 30.0616 14.5917 29.92 15.0592 29.3816L25.7834 17.1983C26.18 16.745 26.2367 16.4616 26.2367 16.405C26.2084 16.3908 25.9534 16.2491 25.3584 16.2491H20.9809C20.4 16.2491 19.9184 15.7675 19.9184 15.1866V4.98664C19.9325 4.27831 19.7909 3.98081 19.7342 3.88164Z" fill="white"/>
</svg>
