<svg width="18" height="18" viewBox="0 0 18 18" fill="none" xmlns="http://www.w3.org/2000/svg">
<path opacity="0.4" d="M9.1875 9.71252V10.41C9.1875 10.6725 9.0525 10.92 8.82 11.055L8.25 11.4" stroke="#9192A3" stroke-miterlimit="10" stroke-linecap="round" stroke-linejoin="round"/>
<path d="M5.99999 16.5H12C15.015 16.5 15.555 15.2925 15.7125 13.8225L16.275 7.8225C16.4775 5.9925 15.9525 4.5 12.75 4.5H5.24999C2.04749 4.5 1.52249 5.9925 1.72499 7.8225L2.28749 13.8225C2.44499 15.2925 2.98499 16.5 5.99999 16.5Z" stroke="#9192A3" stroke-miterlimit="10" stroke-linecap="round" stroke-linejoin="round"/>
<path opacity="0.4" d="M6 4.5V3.9C6 2.5725 6 1.5 8.4 1.5H9.6C12 1.5 12 2.5725 12 3.9V4.5" stroke="#9192A3" stroke-miterlimit="10" stroke-linecap="round" stroke-linejoin="round"/>
<g opacity="0.4">
<path d="M9 13.6501C10.6569 13.6501 12 12.307 12 10.6501C12 8.99329 10.6569 7.65015 9 7.65015C7.34315 7.65015 6 8.99329 6 10.6501C6 12.307 7.34315 13.6501 9 13.6501Z" stroke="#9192A3" stroke-miterlimit="10" stroke-linecap="round" stroke-linejoin="round"/>
<path d="M16.2373 8.25C14.9398 9.195 13.4998 9.855 12.0073 10.23" stroke="#9192A3" stroke-miterlimit="10" stroke-linecap="round" stroke-linejoin="round"/>
<path d="M1.96436 8.45215C3.21686 9.30715 4.58186 9.91465 5.99936 10.2596" stroke="#9192A3" stroke-miterlimit="10" stroke-linecap="round" stroke-linejoin="round"/>
</g>
</svg>
