<svg width="34" height="34" viewBox="0 0 34 34" fill="none" xmlns="http://www.w3.org/2000/svg">
<path d="M31.1242 25.9675C31.1242 26.4775 31.0109 27.0016 30.77 27.5116C30.5292 28.0216 30.2175 28.5033 29.8067 28.9566C29.1125 29.7216 28.3475 30.2741 27.4834 30.6283C26.6334 30.9825 25.7125 31.1666 24.7209 31.1666C23.2759 31.1666 21.7317 30.8266 20.1025 30.1325C18.4734 29.4383 16.8442 28.5033 15.2292 27.3275C13.6 26.1375 12.0559 24.82 10.5825 23.3608C9.12337 21.8875 7.80587 20.3433 6.63004 18.7283C5.46837 17.1133 4.53337 15.4983 3.85337 13.8975C3.17337 12.2825 2.83337 10.7383 2.83337 9.26498C2.83337 8.30165 3.00337 7.38081 3.34337 6.53081C3.68337 5.66665 4.22171 4.87331 4.97254 4.16498C5.87921 3.27248 6.87087 2.83331 7.91921 2.83331C8.31587 2.83331 8.71254 2.91831 9.06671 3.08831C9.43504 3.25831 9.76087 3.51331 10.0159 3.88165L13.3025 8.51415C13.5575 8.86831 13.7417 9.19415 13.8692 9.50581C13.9967 9.80331 14.0675 10.1008 14.0675 10.37C14.0675 10.71 13.9684 11.05 13.77 11.3758C13.5859 11.7016 13.3167 12.0416 12.9767 12.3816L11.9 13.5008C11.7442 13.6566 11.6734 13.8408 11.6734 14.0675C11.6734 14.1808 11.6875 14.28 11.7159 14.3933C11.7584 14.5066 11.8009 14.5916 11.8292 14.6766C12.0842 15.1441 12.5234 15.7533 13.1467 16.49C13.7842 17.2266 14.4642 17.9775 15.2009 18.7283C15.9659 19.4791 16.7025 20.1733 17.4534 20.8108C18.19 21.4341 18.7992 21.8591 19.2809 22.1141C19.3517 22.1425 19.4367 22.185 19.5359 22.2275C19.6492 22.27 19.7625 22.2841 19.89 22.2841C20.1309 22.2841 20.315 22.1991 20.4709 22.0433L21.5475 20.9808C21.9017 20.6266 22.2417 20.3575 22.5675 20.1875C22.8934 19.9891 23.2192 19.89 23.5734 19.89C23.8425 19.89 24.1259 19.9466 24.4375 20.0741C24.7492 20.2016 25.075 20.3858 25.4292 20.6266L30.1184 23.9558C30.4867 24.2108 30.7417 24.5083 30.8975 24.8625C31.0392 25.2166 31.1242 25.5708 31.1242 25.9675Z" stroke="#F0A14A" stroke-width="1.5" stroke-miterlimit="10"/>
<path opacity="0.4" d="M26.2083 12.75C26.2083 11.9 25.5425 10.5967 24.5508 9.53419C23.6442 8.55669 22.44 7.79169 21.25 7.79169" stroke="#F0A14A" stroke-width="1.5" stroke-linecap="round" stroke-linejoin="round"/>
<path opacity="0.4" d="M31.1667 12.75C31.1667 7.26748 26.7325 2.83331 21.25 2.83331" stroke="#F0A14A" stroke-width="1.5" stroke-linecap="round" stroke-linejoin="round"/>
</svg>
