<svg width="24" height="24" viewBox="0 0 24 24" fill="none" xmlns="http://www.w3.org/2000/svg">
<path d="M12 21.1428C17.0495 21.1428 21.1429 17.0494 21.1429 12C21.1429 6.95051 17.0495 2.85712 12 2.85712C6.95057 2.85712 2.85718 6.95051 2.85718 12C2.85718 17.0494 6.95057 21.1428 12 21.1428Z" stroke="#ABD13A" stroke-width="1.5" stroke-linecap="round" stroke-linejoin="round"/>
<path d="M12.0001 16.5714C14.5249 16.5714 16.5716 14.5247 16.5716 12C16.5716 9.47523 14.5249 7.42853 12.0001 7.42853C9.47541 7.42853 7.42871 9.47523 7.42871 12C7.42871 14.5247 9.47541 16.5714 12.0001 16.5714Z" stroke="#ABD13A" stroke-width="1.5" stroke-linecap="round" stroke-linejoin="round"/>
<path opacity="0.4" d="M15.4287 8.57138L18.2859 5.71423" stroke="#ABD13A" stroke-width="1.5" stroke-linecap="round" stroke-linejoin="round"/>
<path opacity="0.4" d="M15.4287 15.4285L18.2859 18.2857" stroke="#ABD13A" stroke-width="1.5" stroke-linecap="round" stroke-linejoin="round"/>
<path opacity="0.4" d="M8.5715 15.4285L5.71436 18.2857" stroke="#ABD13A" stroke-width="1.5" stroke-linecap="round" stroke-linejoin="round"/>
<path opacity="0.4" d="M8.5715 8.57138L5.71436 5.71423" stroke="#ABD13A" stroke-width="1.5" stroke-linecap="round" stroke-linejoin="round"/>
</svg>
