<svg width="46" height="52" viewBox="0 0 46 52" fill="none" xmlns="http://www.w3.org/2000/svg">
<g clip-path="url(#clip0_584_5698)">
<path d="M2.8719 52C2.49462 52.002 2.12069 51.9295 1.77169 51.7868C1.42269 51.6442 1.10553 51.4341 0.838524 51.1687C0.571515 50.9033 0.359945 50.5879 0.216027 50.2407C0.0721092 49.8934 -0.00130676 49.5213 1.76031e-05 49.1456V2.85933C-0.000640332 2.48366 0.0731939 2.11155 0.217286 1.76434C0.361379 1.41714 0.572894 1.10167 0.839704 0.836021C1.10651 0.570378 1.42337 0.359786 1.7721 0.216324C2.12083 0.0728609 2.49457 -0.000650721 2.8719 4.33962e-06C3.37358 0.000323941 3.86631 0.132401 4.30034 0.382906L44.5616 23.5261C44.9983 23.7763 45.3611 24.1368 45.6134 24.5711C45.8657 25.0054 45.9985 25.4983 45.9985 26C45.9985 26.5017 45.8657 26.9946 45.6134 27.4289C45.3611 27.8632 44.9983 28.2237 44.5616 28.4739L4.30034 51.6221C3.86591 51.8711 3.37316 52.0014 2.8719 52Z" fill="#E43F3B"/>
<path d="M3.68604 29.747H6.12838C8.38093 29.747 9.32491 28.459 9.32491 26.6191V25.6246C9.32491 23.7449 8.25607 22.6409 6.04347 22.6409H3.68604V29.747ZM4.9147 28.7524V23.6753H6.04347C7.37203 23.6753 8.0413 24.3267 8.0413 25.6644V26.5246C8.0413 27.9319 7.44695 28.7027 6.10341 28.7027L4.9147 28.7524Z" fill="white"/>
<path d="M10.184 29.747H11.1829C12.5814 29.747 13.4005 28.9364 13.4005 27.559V22.6509H10.4886V23.6753H12.2068V27.559C12.2068 28.3198 11.8571 28.7276 11.1529 28.7276H10.184V29.747Z" fill="white"/>
<path d="M16.9316 29.747H19.4289V28.7524H17.1613C16.562 28.7524 16.2973 28.459 16.2973 27.7579V26.5793H19.0443V25.545H16.2973V23.6753H19.349V22.6509H15.0686V27.8474C15.0686 29.1154 15.6979 29.7669 16.9316 29.7669" fill="white"/>
<path d="M20.4028 29.747H25.5023V28.7524H22.091C23.3835 27.0147 24.5152 25.1639 25.4723 23.2227V22.6509H20.5776V23.6753H23.894C23.3047 25.0826 21.3967 27.8474 20.3978 29.1453L20.4028 29.747Z" fill="white"/>
<path d="M26.2915 29.747H31.3959V28.7524H27.9696C29.2604 27.0145 30.3905 25.1637 31.346 23.2227V22.6509H26.4713V23.6753H29.7677C29.1783 25.0826 27.3004 27.8474 26.2715 29.1453L26.2915 29.747Z" fill="white"/>
<path d="M34.2278 29.747H35.4415V26.9175L37.774 22.7255V22.6509H36.5953L34.8821 25.908L33.2089 22.6509H31.9503V22.7255L34.2278 26.9573V29.747Z" fill="white"/>
<path d="M6.02342 38.4045H5.18933V39.2449H6.02342V38.4045Z" fill="white"/>
<path d="M7.4569 38.4045H6.6228V39.2449H7.4569V38.4045Z" fill="white"/>
<path d="M11.4476 34.2672V35.8535C11.4476 37.2111 10.8433 37.778 9.53967 37.778V37.0519C9.68502 37.0734 9.83341 37.0604 9.97277 37.014C10.1121 36.9676 10.2385 36.8892 10.3417 36.785C10.4449 36.6808 10.5219 36.5539 10.5665 36.4145C10.6111 36.2751 10.6221 36.1272 10.5985 35.9828V34.2672H11.4476ZM11.4476 33.576H10.6035V32.7356H11.4376L11.4476 33.576Z" fill="white"/>
<path d="M14.4843 36.5248H13.4854C13.309 36.536 13.1324 36.5064 12.9695 36.4382C12.8066 36.37 12.6618 36.2652 12.5464 36.132C12.3283 35.8476 12.2202 35.4946 12.2417 35.1374V32.8201H13.0858V34.8092C13.0858 35.1822 13.1657 35.4258 13.3255 35.5352C13.5266 35.6402 13.7538 35.6851 13.9798 35.6645H14.4793L14.4843 36.5248Z" fill="white"/>
<path d="M19.4789 35.9977V36.5248H14.1497V35.6645H18.5748C18.587 35.23 18.4476 34.8047 18.1803 34.4611C18.0219 34.2709 17.8212 34.1202 17.594 34.0209C17.3668 33.9216 17.1195 33.8765 16.8717 33.8892C16.6528 33.8951 16.4372 33.9441 16.2374 34.0334C15.9758 34.1453 15.7434 34.3155 15.5581 34.5307C15.4732 34.3716 15.3334 34.1528 15.1436 33.8644C15.3909 33.6371 15.6745 33.4522 15.9827 33.3174C16.2976 33.18 16.6377 33.1089 16.9816 33.1085C17.4972 33.0933 18.005 33.2375 18.435 33.5212C19.1542 34.0185 19.5138 34.8191 19.5138 36.0076M17.3811 37.9967H16.5271V37.1514H17.3612L17.3811 37.9967Z" fill="white"/>
<path d="M8.89536 35.8983V35.0927H7.02239C7.13429 34.7881 7.35469 34.535 7.64172 34.3816C7.94562 34.2586 8.27314 34.2042 8.60068 34.2225V33.4368C6.96745 33.4368 6.04346 34.312 6.04346 35.9231H8.89536V35.8983Z" fill="white"/>
<path d="M8.14619 35.0927C8.05629 36.2613 7.44196 36.9674 6.34315 36.9674C6.093 36.9865 5.84175 36.949 5.60821 36.8577C5.37468 36.7664 5.16491 36.6237 4.99462 36.4403C4.67641 36.0709 4.5136 35.5935 4.54011 35.1076V34.3617H3.70602V35.1971C3.6979 35.5389 3.76069 35.8788 3.89046 36.1954C4.02022 36.5119 4.21418 36.7985 4.4602 37.037C4.70251 37.2815 4.99209 37.4745 5.31143 37.6044C5.63077 37.7343 5.97325 37.7985 6.31818 37.7929H6.37312C6.71554 37.8008 7.05599 37.7392 7.3737 37.6118C7.69142 37.4844 7.97975 37.2939 8.22111 37.052C8.54151 36.7528 8.77159 36.3704 8.88539 35.948C8.95662 35.6651 8.99186 35.3744 8.99028 35.0827L8.14619 35.0927Z" fill="white"/>
</g>
<defs>
<clipPath id="clip0_584_5698">
<rect width="46" height="52" fill="white"/>
</clipPath>
</defs>
</svg>
