<svg width="145" height="112" viewBox="0 0 145 112" fill="none" xmlns="http://www.w3.org/2000/svg">
<path d="M6.90992 112C5.98279 112.005 5.06423 111.825 4.20954 111.47C3.35484 111.115 2.58167 110.594 1.93656 109.937C1.29146 109.279 0.787748 108.5 0.455752 107.646C0.123757 106.792 -0.0296617 105.88 0.00473061 104.966V70.0639C0.00473061 48.9547 0.00473061 27.8455 0.00473061 6.73624C-0.0328268 3.70224 2.31451 0.803249 5.37007 0.167855C7.10989 -0.218021 8.93337 0.0670662 10.4671 0.964745L97.4661 50.0913C98.4621 50.6275 99.3068 51.4005 99.9237 52.3403C100.541 53.28 100.91 54.3568 100.999 55.4731C101.087 56.5893 100.893 57.7098 100.432 58.7329C99.9708 59.7561 99.2586 60.6496 98.3594 61.3325C97.8644 61.6813 97.3474 61.9988 96.8115 62.283L96.3018 62.5715C67.6867 78.7317 39.0715 94.8919 10.4564 111.052C9.38288 111.679 8.15719 112.006 6.90992 112ZM6.89383 1.31951C6.47851 1.31876 6.06447 1.36495 5.6598 1.45718H5.6437C4.43137 1.73044 3.34778 2.39905 2.56797 3.35502C1.78817 4.31098 1.35769 5.49847 1.34607 6.72565C1.34607 27.8472 1.34607 48.96 1.34607 70.0639V105.011C1.31114 105.999 1.54744 106.979 2.03002 107.846C2.5126 108.714 3.22354 109.436 4.08775 109.938C4.95465 110.423 5.93538 110.677 6.93228 110.672C7.92917 110.667 8.90744 110.405 9.76965 109.911C38.3973 93.742 67.0124 77.5801 95.6151 61.4252L96.1355 61.1313C96.621 60.8748 97.0896 60.5883 97.5385 60.2735C98.2332 59.7476 98.7886 59.0635 99.1571 58.2798C99.5257 57.496 99.6966 56.6359 99.6552 55.7728C99.613 54.8406 99.3279 53.9349 98.8274 53.1433C98.3269 52.3516 97.628 51.7007 96.7981 51.2536L9.79916 2.11375C8.92001 1.59759 7.91678 1.32333 6.89383 1.31951Z" fill="white"/>
<path d="M20.8786 54.6688C20.8544 52.5217 19.6553 50.3243 17.5601 49.5274C14.7353 48.4208 11.6314 49.0164 8.6778 48.8682V63.9879C10.7113 63.9694 12.7447 64.0356 14.7755 63.9482C16.7607 63.8608 18.8585 63.0401 19.9101 61.3007C21.1495 59.3125 20.9 56.89 20.8786 54.6688ZM16.6534 61.0492C15.1108 62.1347 13.1096 61.6979 11.3444 61.7879V51.0524C13.2088 51.1238 15.3684 50.7135 16.9136 51.9896C18.3005 53.1783 18.1852 55.148 18.1718 56.7921C18.1879 58.3038 17.9786 60.0776 16.6534 61.0492Z" fill="white"/>
<path d="M23.403 48.8629C23.403 49.5909 23.403 50.3217 23.403 51.0497H27.1212C27.1212 53.8454 27.1399 56.6412 27.1212 59.4369C27.1212 60.3106 26.7617 61.3246 25.8469 61.6211C24.8489 61.9097 23.7839 61.7455 22.7564 61.7852V63.9853C24.4465 63.9509 26.2922 64.2024 27.8079 63.289C29.1492 62.5212 29.7824 60.946 29.7743 59.4634C29.7931 55.9317 29.7743 52.3973 29.7743 48.8735C27.6496 48.8735 25.5276 48.8735 23.4057 48.8735" fill="white"/>
<path d="M33.3396 48.8682C33.3396 52.5747 33.3396 56.2811 33.3396 59.9691C33.3396 61.0731 33.6078 62.2724 34.4529 63.0507C35.2121 63.7523 36.2878 63.9667 37.2992 63.9826C39.1073 64.0038 40.9181 63.9826 42.7289 63.9826V61.7852C40.9986 61.7614 39.2656 61.8249 37.538 61.7561C37.2115 61.7546 36.895 61.6454 36.6388 61.4458C36.3826 61.2462 36.2014 60.9677 36.1242 60.6548C35.9015 59.5296 36.0437 58.3726 36.0062 57.2369C37.9913 57.2369 39.9738 57.2369 41.959 57.2369C41.959 56.4982 41.959 55.7622 41.959 55.0236C39.9738 55.0236 37.9886 55.0236 36.0062 55.0236C36.0062 53.6998 36.0062 52.3761 36.0062 51.0524H42.6136C42.6136 50.3243 42.6136 49.5962 42.6136 48.8682C39.5213 48.8682 36.4291 48.8682 33.3369 48.8682" fill="white"/>
<path d="M45.2292 48.8655V51.0497C47.6275 51.0497 50.0231 51.0497 52.4187 51.0497C50.3933 55.1983 47.6758 58.9921 44.8777 62.6457V63.9853C48.5691 63.9853 52.2631 63.9853 55.9572 63.9853C55.9572 63.2493 55.9572 62.5133 55.9572 61.7799C53.4998 61.7799 51.0425 61.7799 48.5852 61.7799C51.2143 58.2833 53.5523 54.5824 55.5762 50.7135C55.9277 50.1549 55.8767 49.4877 55.874 48.8602H45.2292" fill="white"/>
<path d="M58.004 48.8655C58.004 49.5945 58.004 50.3225 58.004 51.0497C60.3943 51.0497 62.7872 51.0497 65.1775 51.0497C63.1467 55.193 60.4426 58.9789 57.6365 62.6377C57.6365 63.0851 57.6365 63.5326 57.6365 63.9826H68.7186C68.7186 63.2484 68.7186 62.5159 68.7186 61.7852C66.2613 61.7852 63.804 61.7852 61.344 61.7852C63.9458 58.3105 66.2672 54.6395 68.2867 50.8061C68.6623 50.2237 68.6435 49.5274 68.6274 48.8629H58.004" fill="white"/>
<path d="M69.8292 48.8735C71.4388 51.9737 73.2336 54.9786 74.8136 58.0867C74.8807 60.0511 74.8136 62.0208 74.8405 63.9879H77.4883C77.4883 62.2988 77.4883 60.6071 77.4883 58.918C77.5097 58.5076 77.4239 58.0576 77.6492 57.6843C79.291 54.7429 80.9892 51.8307 82.6095 48.8761C81.7296 48.8638 80.8496 48.8638 79.9697 48.8761C78.733 51.1741 77.507 53.4774 76.273 55.7781C75.0604 53.4801 73.8586 51.1741 72.6595 48.8761C71.7178 48.8761 70.7816 48.8761 69.8346 48.8761" fill="white"/>
<path d="M23.6498 70.3101V72.1157C24.2614 72.1157 24.8713 72.1157 25.4794 72.1157V70.3101H23.6498Z" fill="white"/>
<path d="M27.1721 70.5113C27.207 72.391 27.097 74.2787 27.2311 76.1584C27.2825 76.78 27.574 77.3584 28.0454 77.7738C28.5167 78.1892 29.1319 78.4099 29.7636 78.3902C34.1497 78.4458 38.5413 78.377 42.9328 78.4034C42.9784 76.4602 42.8979 74.284 41.5137 72.7511C39.4722 70.4981 35.6333 70.6331 33.4818 72.669C33.7903 73.1429 34.0907 73.6194 34.3831 74.1039C35.5045 72.9655 37.2885 72.4281 38.8069 73.0794C40.1992 73.63 40.9101 75.1259 40.953 76.5396C37.4119 76.5634 33.8707 76.5396 30.3323 76.5211C30.0253 76.532 29.7256 76.4273 29.4939 76.2282C29.2622 76.0291 29.116 75.7505 29.0849 75.4488C28.932 73.8127 29.058 72.1607 29.0151 70.5166H27.1721" fill="white"/>
<path d="M15.2503 73.1508C14.1397 74.1489 13.7936 75.6845 13.7615 77.1221C15.1645 77.1221 16.5675 77.1221 17.9706 77.1221C16.9833 79.7298 12.9271 80.1322 11.3229 77.9163C10.4242 76.7355 10.5798 75.1788 10.5744 73.7862C9.95475 73.7862 9.33237 73.7862 8.71268 73.7862C8.72877 74.9802 8.61073 76.2087 8.98094 77.363C9.27886 78.2272 9.79224 79.0037 10.4739 79.6208C11.1555 80.238 11.9834 80.676 12.8815 80.8947C14.7594 81.3368 16.9055 80.9874 18.3408 79.6557C19.6124 78.5967 20.2186 76.942 20.2428 75.3244C18.7968 75.3244 17.3509 75.3588 15.9049 75.3244C16.4414 73.9345 17.9357 73.4103 19.328 73.4712V71.79C17.882 71.8297 16.3341 72.1157 15.253 73.1402" fill="white"/>
<path d="M23.6525 73.5956C23.5854 75.1364 23.8 76.7064 23.5022 78.2287C23.2715 79.1818 22.2306 79.5074 21.3561 79.5524C21.3561 80.066 21.3561 80.5823 21.3561 81.0986C22.7377 81.0853 24.3902 80.7411 25.0314 79.3751C25.8362 77.5589 25.3801 75.5097 25.4874 73.5903H23.6525" fill="white"/>
<path d="M36.489 79.6848C36.489 80.292 36.489 80.8991 36.489 81.5063H38.2972C38.2972 80.8974 38.2972 80.2902 38.2972 79.6848H36.489Z" fill="white"/>
<path d="M80.788 92.162C79.756 92.162 78.952 91.946 78.376 91.514C77.812 91.082 77.416 90.5 77.188 89.768C76.972 89.036 76.864 88.22 76.864 87.32V82.172C76.864 81.188 76.972 80.33 77.188 79.598C77.416 78.866 77.812 78.302 78.376 77.906C78.952 77.498 79.756 77.294 80.788 77.294C81.7 77.294 82.42 77.462 82.948 77.798C83.488 78.134 83.872 78.614 84.1 79.238C84.34 79.862 84.46 80.612 84.46 81.488V82.64H82.534V81.614C82.534 81.074 82.504 80.6 82.444 80.192C82.396 79.772 82.252 79.448 82.012 79.22C81.772 78.992 81.37 78.878 80.806 78.878C80.23 78.878 79.81 79.004 79.546 79.256C79.282 79.496 79.108 79.844 79.024 80.3C78.952 80.744 78.916 81.266 78.916 81.866V87.644C78.916 88.376 78.976 88.958 79.096 89.39C79.216 89.81 79.414 90.11 79.69 90.29C79.966 90.47 80.338 90.56 80.806 90.56C81.358 90.56 81.754 90.44 81.994 90.2C82.234 89.948 82.384 89.606 82.444 89.174C82.504 88.742 82.534 88.238 82.534 87.662V86.582H84.46V87.662C84.46 88.55 84.352 89.336 84.136 90.02C83.92 90.692 83.548 91.22 83.02 91.604C82.492 91.976 81.748 92.162 80.788 92.162ZM85.6057 92L88.7017 77.42H90.6637L93.7777 92H91.8517L91.1857 88.328H88.2157L87.5137 92H85.6057ZM88.4857 86.87H90.9157L89.6917 80.3L88.4857 86.87ZM95.221 92L95.491 77.42H97.489L100.063 89.246L102.655 77.42H104.635L104.905 92H103.267L103.105 81.416L100.639 92H99.487L97.039 81.416L96.877 92H95.221ZM107.104 92V77.42H111.73C112.606 77.42 113.32 77.588 113.872 77.924C114.424 78.248 114.832 78.722 115.096 79.346C115.372 79.97 115.51 80.726 115.51 81.614C115.51 82.658 115.33 83.474 114.97 84.062C114.622 84.65 114.142 85.07 113.53 85.322C112.918 85.562 112.216 85.682 111.424 85.682H110.074V92H107.104ZM110.074 83.594H111.118C111.55 83.594 111.88 83.528 112.108 83.396C112.348 83.252 112.51 83.03 112.594 82.73C112.678 82.43 112.72 82.046 112.72 81.578C112.72 81.134 112.684 80.762 112.612 80.462C112.552 80.162 112.408 79.928 112.18 79.76C111.952 79.592 111.592 79.508 111.1 79.508H110.074V83.594ZM121.14 92.198C120.036 92.198 119.178 92.012 118.566 91.64C117.954 91.256 117.522 90.71 117.27 90.002C117.03 89.282 116.91 88.412 116.91 87.392V77.42H119.844V87.806C119.844 88.166 119.868 88.52 119.916 88.868C119.976 89.216 120.096 89.498 120.276 89.714C120.468 89.93 120.756 90.038 121.14 90.038C121.536 90.038 121.824 89.93 122.004 89.714C122.196 89.498 122.316 89.216 122.364 88.868C122.412 88.52 122.436 88.166 122.436 87.806V77.42H125.37V87.392C125.37 88.412 125.244 89.282 124.992 90.002C124.752 90.71 124.326 91.256 123.714 91.64C123.102 92.012 122.244 92.198 121.14 92.198ZM131.492 92.198C130.412 92.198 129.554 91.994 128.918 91.586C128.294 91.178 127.856 90.614 127.604 89.894C127.352 89.162 127.226 88.316 127.226 87.356V82.118C127.226 81.11 127.352 80.246 127.604 79.526C127.856 78.794 128.294 78.23 128.918 77.834C129.554 77.438 130.412 77.24 131.492 77.24C132.536 77.24 133.352 77.414 133.94 77.762C134.54 78.11 134.96 78.602 135.2 79.238C135.452 79.874 135.578 80.612 135.578 81.452V82.676H132.698V81.308C132.698 80.972 132.68 80.66 132.644 80.372C132.608 80.072 132.506 79.832 132.338 79.652C132.182 79.46 131.906 79.364 131.51 79.364C131.114 79.364 130.826 79.46 130.646 79.652C130.466 79.844 130.352 80.096 130.304 80.408C130.256 80.708 130.232 81.044 130.232 81.416V88.04C130.232 88.448 130.262 88.808 130.322 89.12C130.394 89.42 130.52 89.654 130.7 89.822C130.892 89.978 131.162 90.056 131.51 90.056C131.894 90.056 132.164 89.966 132.32 89.786C132.488 89.594 132.59 89.342 132.626 89.03C132.674 88.718 132.698 88.388 132.698 88.04V86.618H135.578V87.824C135.578 88.676 135.458 89.432 135.218 90.092C134.978 90.74 134.564 91.256 133.976 91.64C133.388 92.012 132.56 92.198 131.492 92.198ZM137.391 92V77.42H143.745V79.472H140.361V83.342H142.971V85.412H140.361V89.984H143.781V92H137.391ZM76.144 111.63V110.604C76.648 110.604 77.044 110.574 77.332 110.514C77.632 110.442 77.854 110.316 77.998 110.136C78.154 109.956 78.256 109.698 78.304 109.362C78.352 109.026 78.376 108.594 78.376 108.066V96.42H79.744V108.138C79.744 108.942 79.672 109.602 79.528 110.118C79.384 110.634 79.102 111.012 78.682 111.252C78.262 111.504 77.638 111.63 76.81 111.63H76.144ZM85.7613 111.18C84.7893 111.18 84.0273 110.994 83.4753 110.622C82.9353 110.238 82.5513 109.71 82.3233 109.038C82.1073 108.354 81.9993 107.574 81.9993 106.698V100.65C81.9993 99.762 82.1133 98.994 82.3413 98.346C82.5813 97.686 82.9713 97.176 83.5113 96.816C84.0633 96.456 84.8133 96.276 85.7613 96.276C86.6973 96.276 87.4353 96.456 87.9753 96.816C88.5273 97.176 88.9173 97.686 89.1453 98.346C89.3733 98.994 89.4873 99.762 89.4873 100.65V106.716C89.4873 107.592 89.3733 108.366 89.1453 109.038C88.9293 109.698 88.5513 110.22 88.0113 110.604C87.4713 110.988 86.7213 111.18 85.7613 111.18ZM85.7613 110.082C86.3973 110.082 86.8833 109.956 87.2193 109.704C87.5553 109.44 87.7833 109.08 87.9033 108.624C88.0353 108.156 88.1013 107.616 88.1013 107.004V100.398C88.1013 99.786 88.0353 99.252 87.9033 98.796C87.7833 98.34 87.5553 97.992 87.2193 97.752C86.8833 97.5 86.3973 97.374 85.7613 97.374C85.1133 97.374 84.6153 97.5 84.2673 97.752C83.9313 97.992 83.6973 98.34 83.5653 98.796C83.4453 99.252 83.3853 99.786 83.3853 100.398V107.004C83.3853 107.616 83.4453 108.156 83.5653 108.624C83.6973 109.08 83.9313 109.44 84.2673 109.704C84.6153 109.956 85.1133 110.082 85.7613 110.082ZM91.7624 111V96.42H94.8944C95.5544 96.42 96.1124 96.504 96.5684 96.672C97.0244 96.84 97.3904 97.086 97.6664 97.41C97.9424 97.734 98.1404 98.124 98.2604 98.58C98.3924 99.024 98.4584 99.516 98.4584 100.056C98.4584 100.524 98.3984 100.98 98.2784 101.424C98.1704 101.856 97.9844 102.228 97.7204 102.54C97.4564 102.84 97.0844 103.038 96.6044 103.134C97.1684 103.29 97.6124 103.56 97.9364 103.944C98.2604 104.316 98.4824 104.754 98.6024 105.258C98.7344 105.75 98.8004 106.26 98.8004 106.788C98.8004 107.364 98.7464 107.91 98.6384 108.426C98.5424 108.93 98.3624 109.374 98.0984 109.758C97.8464 110.142 97.4984 110.448 97.0544 110.676C96.6104 110.892 96.0464 111 95.3624 111H91.7624ZM93.1304 109.974H95.0924C96.0404 109.974 96.6704 109.716 96.9824 109.2C97.3064 108.684 97.4684 107.88 97.4684 106.788C97.4684 106.2 97.3964 105.678 97.2524 105.222C97.1084 104.766 96.8624 104.412 96.5144 104.16C96.1784 103.896 95.7164 103.764 95.1284 103.764H93.1304V109.974ZM93.1304 102.702H95.1104C95.6744 102.702 96.1064 102.594 96.4064 102.378C96.7064 102.15 96.9164 101.844 97.0364 101.46C97.1564 101.064 97.2164 100.596 97.2164 100.056C97.2164 99.468 97.1324 98.982 96.9644 98.598C96.8084 98.214 96.5324 97.932 96.1364 97.752C95.7404 97.572 95.1704 97.482 94.4264 97.482H93.1304V102.702ZM103.894 111.18C103.102 111.18 102.442 111.018 101.914 110.694C101.398 110.358 101.008 109.896 100.744 109.308C100.48 108.708 100.318 108.012 100.258 107.22L101.464 106.86C101.524 107.46 101.632 108.006 101.788 108.498C101.944 108.978 102.19 109.362 102.526 109.65C102.862 109.926 103.324 110.064 103.912 110.064C104.56 110.064 105.064 109.896 105.424 109.56C105.784 109.224 105.964 108.69 105.964 107.958C105.964 107.31 105.802 106.752 105.478 106.284C105.166 105.816 104.734 105.324 104.182 104.808L101.608 102.342C101.152 101.898 100.816 101.442 100.6 100.974C100.384 100.494 100.276 99.972 100.276 99.408C100.276 98.4 100.576 97.626 101.176 97.086C101.776 96.546 102.574 96.276 103.57 96.276C104.086 96.276 104.548 96.342 104.956 96.474C105.376 96.606 105.73 96.822 106.018 97.122C106.318 97.41 106.552 97.788 106.72 98.256C106.888 98.724 107.002 99.294 107.062 99.966L105.892 100.272C105.844 99.66 105.742 99.138 105.586 98.706C105.442 98.262 105.208 97.926 104.884 97.698C104.572 97.47 104.134 97.356 103.57 97.356C102.97 97.356 102.478 97.512 102.094 97.824C101.71 98.136 101.518 98.622 101.518 99.282C101.518 99.678 101.59 100.038 101.734 100.362C101.89 100.686 102.16 101.034 102.544 101.406L105.118 103.836C105.694 104.376 106.192 104.976 106.612 105.636C107.032 106.296 107.242 107.04 107.242 107.868C107.242 108.6 107.098 109.212 106.81 109.704C106.534 110.196 106.144 110.568 105.64 110.82C105.136 111.06 104.554 111.18 103.894 111.18Z" fill="white"/>
</svg>
