<svg width="18" height="18" viewBox="0 0 18 18" fill="none" xmlns="http://www.w3.org/2000/svg">
<path d="M14.475 5.93999V9.80251C14.475 12.1125 13.155 13.1025 11.175 13.1025H4.58247C4.24497 13.1025 3.92247 13.0725 3.62247 13.005C3.43497 12.975 3.25497 12.9225 3.08997 12.8625C1.96497 12.4425 1.28247 11.4675 1.28247 9.80251V5.93999C1.28247 3.62999 2.60247 2.64001 4.58247 2.64001H11.175C12.855 2.64001 14.0625 3.35251 14.385 4.98001C14.4375 5.28001 14.475 5.58749 14.475 5.93999Z" stroke="#9192A3" stroke-miterlimit="10" stroke-linecap="round" stroke-linejoin="round"/>
<path opacity="0.4" d="M16.7249 8.18996V12.0525C16.7249 14.3625 15.4049 15.3524 13.4249 15.3524H6.83244C6.27744 15.3524 5.77494 15.2775 5.33994 15.1125C4.44744 14.7825 3.83994 14.1 3.62244 13.005C3.92244 13.0725 4.24494 13.1024 4.58244 13.1024H11.1749C13.1549 13.1024 14.4749 12.1125 14.4749 9.80247V5.93996C14.4749 5.58746 14.4449 5.27248 14.3849 4.97998C15.8099 5.27998 16.7249 6.28496 16.7249 8.18996Z" stroke="#9192A3" stroke-miterlimit="10" stroke-linecap="round" stroke-linejoin="round"/>
<path d="M7.87503 9.85504C8.96855 9.85504 9.85504 8.96855 9.85504 7.87503C9.85504 6.78151 8.96855 5.89502 7.87503 5.89502C6.78151 5.89502 5.89502 6.78151 5.89502 7.87503C5.89502 8.96855 6.78151 9.85504 7.87503 9.85504Z" stroke="#9192A3" stroke-miterlimit="10" stroke-linecap="round" stroke-linejoin="round"/>
<path opacity="0.4" d="M3.58496 6.22498V9.52499" stroke="#9192A3" stroke-miterlimit="10" stroke-linecap="round" stroke-linejoin="round"/>
<path opacity="0.4" d="M12.165 6.22498V9.52499" stroke="#9192A3" stroke-miterlimit="10" stroke-linecap="round" stroke-linejoin="round"/>
</svg>
