<svg width="34" height="34" viewBox="0 0 34 34" fill="none" xmlns="http://www.w3.org/2000/svg">
<path opacity="0.4" d="M17 2.83334C13.2884 2.83334 10.2709 5.85084 10.2709 9.56251C10.2709 13.2033 13.1184 16.15 16.83 16.2775C16.9434 16.2633 17.0567 16.2633 17.1417 16.2775C17.17 16.2775 17.1842 16.2775 17.2125 16.2775C17.2267 16.2775 17.2267 16.2775 17.2409 16.2775C20.8675 16.15 23.715 13.2033 23.7292 9.56251C23.7292 5.85084 20.7117 2.83334 17 2.83334Z" fill="#9192A3"/>
<path d="M24.1966 20.0458C20.2441 17.4108 13.7983 17.4108 9.81744 20.0458C8.01828 21.25 7.02661 22.8792 7.02661 24.6217C7.02661 26.3642 8.01828 27.9792 9.80328 29.1692C11.7866 30.5008 14.3933 31.1667 16.9999 31.1667C19.6066 31.1667 22.2133 30.5008 24.1966 29.1692C25.9816 27.965 26.9733 26.35 26.9733 24.5933C26.9591 22.8508 25.9816 21.2358 24.1966 20.0458Z" fill="#9192A3"/>
</svg>
