<svg width="34" height="34" viewBox="0 0 34 34" fill="none" xmlns="http://www.w3.org/2000/svg">
<path opacity="0.4" d="M22.9358 12.5517C22.3833 12.5517 21.9442 12.1125 21.9442 11.56V9.74667C21.9442 8.35833 21.3492 7.02667 20.3292 6.09167C19.2808 5.1425 17.935 4.70333 16.5183 4.83083C14.1383 5.0575 12.0558 7.48 12.0558 10.0017V11.2767C12.0558 11.8292 11.6167 12.2683 11.0642 12.2683C10.5117 12.2683 10.0725 11.8292 10.0725 11.2767V10.0017C10.0725 6.46 12.9342 3.1875 16.32 2.86167C18.2892 2.6775 20.1875 3.30083 21.6467 4.6325C23.0917 5.93583 23.9133 7.80583 23.9133 9.74667V11.56C23.9133 12.1125 23.4742 12.5517 22.9358 12.5517Z" fill="#9192A3"/>
<path d="M28.2766 12.6933C27.0866 11.3758 25.1316 10.7383 22.27 10.7383H11.73C8.8683 10.7383 6.9133 11.3758 5.7233 12.6933C4.34913 14.2233 4.39163 16.2633 4.54747 17.68L5.53913 25.5708C5.83663 28.3333 6.9558 31.1667 13.0475 31.1667H20.9525C27.0441 31.1667 28.1633 28.3333 28.4608 25.585L29.4525 17.6658C29.6083 16.2633 29.6508 14.2233 28.2766 12.6933ZM17 26.3217C14.0391 26.3217 11.6308 23.9133 11.6308 20.9525C11.6308 17.9917 14.0391 15.5833 17 15.5833C19.9608 15.5833 22.3691 17.9917 22.3691 20.9525C22.3691 23.9133 19.9608 26.3217 17 26.3217Z" fill="#9192A3"/>
<path opacity="0.4" d="M22.3692 20.9525C22.3692 23.9133 19.9609 26.3217 17 26.3217C14.0392 26.3217 11.6309 23.9133 11.6309 20.9525C11.6309 17.9917 14.0392 15.5833 17 15.5833C19.9609 15.5833 22.3692 17.9917 22.3692 20.9525Z" fill="#9192A3"/>
<path d="M15.5833 23.4883C15.2291 23.4883 14.875 23.3042 14.6766 22.9783C14.3791 22.4825 14.535 21.8167 15.045 21.5192L16.3058 20.7683V19.2383C16.3058 18.6575 16.7875 18.1758 17.3683 18.1758C17.9491 18.1758 18.4166 18.6433 18.4166 19.2383V21.3633C18.4166 21.7317 18.2183 22.0858 17.9066 22.27L16.1358 23.3325C15.9658 23.4317 15.7675 23.4883 15.5833 23.4883Z" fill="#9192A3"/>
</svg>
