<svg width="46" height="55" viewBox="0 0 46 55" fill="none" xmlns="http://www.w3.org/2000/svg">
<path d="M34.9155 30.2837C29.509 33.7921 24.833 35.9367 20.8768 37.0197L20.866 34.0354L15.1426 35.768L15.1318 37.9019C2.85497 38.0546 1.19514 24.9488 9.58025 16.2661C3.96421 29.2114 23.1033 27.0961 31.3326 28.3022C33.5028 28.6204 34.9155 29.1686 34.9155 30.2837Z" fill="#FECC0B"/>
<path d="M40.3544 38.6668V40.2445L36.79 41.3243L36.7925 39.7458L40.3544 38.6668Z" fill="#22297C"/>
<path d="M21.688 43.7726V45.5003L20.8661 45.749L18.046 46.6045V44.8773L20.8661 44.0215L21.688 43.7726Z" fill="#22297C"/>
<path d="M17.4576 45.2264V46.9538L15.1425 47.6571L13.8157 48.0582V46.3308L15.1425 45.9297L17.4576 45.2264Z" fill="#22297C"/>
<path d="M41.9658 31.4012V34.5954C41.9658 35.1971 41.4286 35.9549 40.2074 36.3929L36.5941 37.4874L35.2512 37.8942V42.7016C35.2177 43.6376 34.4791 44.1056 33.8753 44.3411L29.7617 45.5878L27.9163 46.1467C27.9163 46.1467 23.8481 47.3824 23.8118 47.3901C22.9806 47.5709 22.6561 47.1639 22.6121 46.7799V43.4913L27.9165 41.8869V43.8159C27.9165 44.3954 29.7458 44.2561 29.762 43.4539V35.1L35.1629 33.4637V35.5816C35.4978 36.2114 36.7848 36.0333 36.7958 35.1749V32.9687L40.3545 31.8911L41.9658 31.4012Z" fill="#22297C"/>
<path d="M35.3185 29.7709C43.3759 23.6205 48.479 11.9427 0.760132 7.57591C42.4815 -11.1428 56.9849 14.796 35.3185 29.7709Z" fill="#22297C"/>
<path d="M27.9163 35.659V39.3332C27.9163 39.7183 27.5534 40.2531 26.8742 40.4322L22.6118 41.7238L21.6879 42.0046L20.866 42.2533L18.0459 43.1063L17.4577 43.2855L15.1426 43.9861L13.8158 44.3899L13.6304 44.4461L9.84076 45.5933C8.97324 45.735 8.12452 45.4355 7.99023 44.791V41.6971L13.6304 39.9883V42.3843C13.7244 42.7641 15.0566 42.6624 15.1076 42.0501L15.1318 37.9026L15.1426 35.7686L20.866 34.0361L20.8768 37.0204L20.8902 40.0287C20.917 40.5285 22.3083 40.2213 22.3029 39.6196L22.2922 37.3624L22.6118 37.2664L27.9163 35.659Z" fill="#22297C"/>
<path d="M5.8905 53.3302L6.78085 50.736H7.21353L8.10388 53.3302H7.73324L7.49366 52.6052H6.4846L6.24503 53.3302H5.8905ZM7.39644 52.3108L6.98846 51.0877L6.58237 52.3108H7.39644Z" fill="#22297C"/>
<path d="M10.7208 53.3302H9.19019V50.736H9.54149V53.0237H10.7211L10.7208 53.3302Z" fill="#22297C"/>
<path d="M12.6703 53.3812C12.4836 53.3812 12.3125 53.3531 12.1578 53.2975C12.0029 53.2418 11.8699 53.1571 11.7587 53.0432C11.6475 52.9282 11.5624 52.7859 11.5033 52.6161C11.4442 52.4466 11.4147 52.2516 11.4147 52.0307C11.4147 51.8219 11.4445 51.6347 11.5041 51.4689C11.5637 51.3034 11.6491 51.1622 11.7603 51.0445C11.8678 50.9306 12.0004 50.8429 12.1576 50.7817C12.3147 50.7202 12.4868 50.6891 12.6735 50.6891C12.7624 50.6891 12.8473 50.6956 12.9289 50.7081C13.0106 50.7212 13.0885 50.7384 13.1631 50.7605C13.2222 50.7779 13.2883 50.802 13.3608 50.833C13.4336 50.8638 13.4924 50.8902 13.5373 50.9122V51.3288H13.5072C13.4634 51.2903 13.4183 51.2542 13.3716 51.22C13.3248 51.1857 13.259 51.1486 13.1739 51.1092C13.103 51.0745 13.0213 51.0453 12.9289 51.0223C12.8368 50.9988 12.7374 50.9873 12.6311 50.9873C12.3767 50.9873 12.1715 51.0814 12.0147 51.2697C11.8578 51.458 11.7797 51.7082 11.7797 52.0206C11.7797 52.1949 11.8004 52.3471 11.8417 52.4771C11.8831 52.6073 11.9427 52.7177 12.0209 52.8081C12.0966 52.8977 12.1879 52.9659 12.2951 53.0129C12.4022 53.06 12.5223 53.0835 12.6561 53.0835C12.7554 53.0835 12.854 53.0769 12.9523 53.0627C13.0503 53.0488 13.1331 53.0279 13.2005 53.0001V52.3294H12.5905V52.0259H13.5483V53.1587C13.5034 53.1782 13.4433 53.2033 13.3683 53.2333C13.2931 53.2635 13.223 53.2873 13.158 53.3049C13.0716 53.3306 12.9937 53.3496 12.9238 53.3624C12.854 53.3753 12.7697 53.3812 12.6703 53.3812Z" fill="#22297C"/>
<path d="M14.907 53.3302V50.736H16.5582V51.0425H15.258V51.7532H16.4696V52.0597H15.258V53.0234H16.5582V53.3299H14.907V53.3302Z" fill="#22297C"/>
<path d="M19.3703 53.3302H18.9145L18.0774 52.2988H17.6764V53.3302H17.3251V50.736H18.0062C18.1574 50.736 18.2844 50.7438 18.3868 50.7604C18.4891 50.7767 18.5863 50.8144 18.6785 50.8735C18.7706 50.9318 18.8436 51.0066 18.8973 51.0984C18.9511 51.1901 18.9782 51.304 18.9782 51.4398C18.9782 51.6302 18.929 51.7896 18.831 51.9172C18.733 52.0447 18.5992 52.1397 18.43 52.2012L19.3703 53.3302ZM18.611 51.4658C18.611 51.3904 18.5973 51.3233 18.5702 51.2644C18.5428 51.2059 18.5009 51.158 18.4443 51.1208C18.3946 51.0885 18.3366 51.0655 18.2705 51.0518C18.2041 51.0387 18.122 51.032 18.0239 51.032H17.6764V52.0113H17.985C18.0854 52.0113 18.1759 52.0025 18.2562 51.9848C18.3366 51.9672 18.4053 51.9313 18.462 51.8771C18.5127 51.8279 18.5503 51.7701 18.5745 51.7027C18.599 51.6353 18.611 51.5564 18.611 51.4658Z" fill="#22297C"/>
<path d="M20.4626 53.3302H20.1129V53.0654V51.0008L20.1143 50.736H20.4669L20.4642 51.0008V53.0654L20.4626 53.3302Z" fill="#22297C"/>
<path d="M21.6949 53.3302V50.736H23.3462V51.0425H22.046V51.7532H23.2576V52.0597H22.046V53.0234H23.3462V53.3299H21.6949V53.3302Z" fill="#22297C"/>
<path d="M28.1109 51.3764C28.1109 51.5059 28.0859 51.6291 28.036 51.7463C27.9855 51.8631 27.9135 51.9607 27.8192 52.0393C27.7612 52.0877 27.6979 52.1324 27.6288 52.1736C27.5595 52.2145 27.483 52.2493 27.3995 52.2781C27.3154 52.3067 27.2249 52.3292 27.1266 52.3455C27.0283 52.3618 26.919 52.3696 26.797 52.3696H26.3498V53.2785H25.4968V50.4993H26.8153C27.0111 50.4993 27.1803 50.514 27.3226 50.5432C27.465 50.5723 27.5939 50.6186 27.7091 50.6825C27.837 50.752 27.9358 50.8448 28.0056 50.9614C28.076 51.0777 28.1109 51.216 28.1109 51.3764ZM27.2354 51.3933C27.2354 51.3149 27.2123 51.2475 27.1666 51.1908C27.1209 51.1342 27.0664 51.0957 27.0025 51.074C26.9219 51.0456 26.8448 51.0291 26.7712 51.0245C26.6974 51.02 26.5975 51.0181 26.4712 51.0181H26.3504V51.8505H26.4097C26.4903 51.8505 26.5663 51.8497 26.6378 51.8484C26.7092 51.8473 26.7715 51.8428 26.8247 51.8353C26.8704 51.8292 26.9187 51.8171 26.9695 51.7989C27.0202 51.7808 27.0597 51.7604 27.0871 51.738C27.1448 51.692 27.1841 51.6441 27.2047 51.5944C27.2249 51.5452 27.2354 51.4778 27.2354 51.3933Z" fill="#22297C"/>
<path d="M31.9287 51.8888C31.9287 52.338 31.7818 52.6913 31.4882 52.9488C31.1946 53.2066 30.7923 53.3349 30.2817 53.3349C29.7693 53.3349 29.3672 53.205 29.075 52.9442C28.7833 52.6833 28.6372 52.3316 28.6372 51.8888C28.6372 51.4419 28.7833 51.089 29.075 50.8296C29.3672 50.5699 29.7693 50.4405 30.2817 50.4405C30.7923 50.4405 31.1946 50.5694 31.4882 50.8274C31.7818 51.086 31.9287 51.4395 31.9287 51.8888ZM31.048 51.8866C31.048 51.7214 31.0273 51.5802 30.9857 51.4641C30.9438 51.3475 30.8879 51.2521 30.8178 51.1775C30.745 51.1018 30.6626 51.0475 30.5705 51.0144C30.4783 50.9815 30.383 50.9649 30.2844 50.9649C30.1794 50.9649 30.0843 50.9801 29.9989 51.0106C29.914 51.0411 29.8319 51.0954 29.7529 51.1737C29.6825 51.2459 29.6261 51.3419 29.5829 51.4612C29.5394 51.5805 29.5179 51.723 29.5179 51.8888C29.5179 52.0591 29.5383 52.2006 29.5794 52.3134C29.6205 52.426 29.6769 52.5201 29.7483 52.5961C29.8211 52.6734 29.9041 52.7282 29.997 52.7613C30.09 52.7942 30.1853 52.8108 30.2844 52.8108C30.3846 52.8108 30.4818 52.7932 30.5761 52.7576C30.6706 52.7223 30.7517 52.6672 30.8202 52.5926C30.8933 52.5116 30.9494 52.4177 30.9889 52.31C31.0284 52.2019 31.048 52.0613 31.048 51.8866Z" fill="#22297C"/>
<path d="M33.7505 53.3272C33.4902 53.3272 33.2619 53.3069 33.0648 53.2657C32.8682 53.2248 32.685 53.1737 32.5164 53.1127V52.452H32.5937C32.7643 52.5699 32.952 52.6608 33.1572 52.7247C33.3627 52.7878 33.5617 52.8197 33.7548 52.8197C33.8037 52.8197 33.8679 52.8154 33.9479 52.8066C34.0277 52.7977 34.0916 52.7841 34.1405 52.7654C34.1998 52.7445 34.25 52.7148 34.2911 52.6769C34.3322 52.6389 34.3526 52.5889 34.3526 52.5266C34.3526 52.4568 34.3193 52.4001 34.2522 52.3568C34.1853 52.3132 34.1056 52.2816 34.0129 52.2616C33.8969 52.2367 33.7736 52.2129 33.642 52.1907C33.5104 52.1683 33.3876 52.1407 33.2738 52.1084C33.0108 52.0324 32.822 51.9305 32.7084 51.8022C32.594 51.6741 32.537 51.5136 32.537 51.3206C32.537 51.0604 32.6716 50.8499 32.9407 50.6889C33.2098 50.5274 33.5461 50.4472 33.949 50.4472C34.1512 50.4472 34.3524 50.4641 34.5522 50.4975C34.752 50.5309 34.9309 50.5766 35.0894 50.6339V51.2684H35.0142C34.8879 51.1799 34.7338 51.1053 34.5522 51.0443C34.3704 50.9834 34.184 50.9529 33.9922 50.9529C33.9178 50.9529 33.8509 50.9574 33.7916 50.966C33.7322 50.9745 33.6699 50.9914 33.6044 51.0163C33.5515 51.036 33.5053 51.066 33.4663 51.105C33.4277 51.1441 33.4083 51.1882 33.4083 51.2366C33.4083 51.3075 33.4389 51.3636 33.5007 51.4053C33.5625 51.4471 33.6815 51.4848 33.8577 51.5182C33.9718 51.5396 34.0816 51.5599 34.1872 51.5797C34.2933 51.5995 34.4058 51.6273 34.5262 51.6621C34.7617 51.7318 34.9368 51.8252 35.0518 51.9428C35.1667 52.0605 35.2242 52.2159 35.2242 52.4087C35.2242 52.6849 35.0915 52.9068 34.8264 53.0748C34.5605 53.243 34.202 53.3272 33.7505 53.3272Z" fill="#22297C"/>
<path d="M36.58 53.278V51.0291H35.5765V50.4991H38.4367V51.0291H37.4332V53.278H36.58Z" fill="#22297C"/>
<path d="M39.0566 53.2766V50.4974H41.3535V51.0274H39.9051V51.5143H41.2394V52.0443H39.9051V52.746H41.3535V53.276H39.0566V53.2766Z" fill="#22297C"/>
</svg>
